<svg xmlns="http://www.w3.org/2000/svg" viewBox="0 0 960 720" role="img" aria-labelledby="title desc">
  <title id="title">Tech company dashboard workspace</title>
  <desc id="desc">A modern technology workspace with dashboards, cloud systems, and connected data cards.</desc>
  <rect width="960" height="720" rx="40" fill="#e8f4f5"/>
  <circle cx="778" cy="132" r="86" fill="#f2a541" opacity=".82"/>
  <circle cx="162" cy="600" r="118" fill="#0e6f7b" opacity=".16"/>
  <rect x="120" y="118" width="720" height="444" rx="28" fill="#ffffff" stroke="#c8d3df" stroke-width="4"/>
  <rect x="120" y="118" width="720" height="72" rx="28" fill="#084c61"/>
  <circle cx="168" cy="154" r="10" fill="#f2a541"/>
  <circle cx="204" cy="154" r="10" fill="#9bd7d9"/>
  <circle cx="240" cy="154" r="10" fill="#ffffff"/>
  <rect x="168" y="236" width="228" height="134" rx="18" fill="#f3f7fb" stroke="#d9e1ea" stroke-width="3"/>
  <rect x="436" y="236" width="356" height="134" rx="18" fill="#f3f7fb" stroke="#d9e1ea" stroke-width="3"/>
  <rect x="168" y="412" width="624" height="98" rx="18" fill="#f3f7fb" stroke="#d9e1ea" stroke-width="3"/>
  <path d="M198 326l42-42 40 28 58-58" fill="none" stroke="#0e6f7b" stroke-width="12" stroke-linecap="round" stroke-linejoin="round"/>
  <rect x="474" y="276" width="76" height="58" rx="10" fill="#0e6f7b"/>
  <rect x="582" y="258" width="76" height="76" rx="10" fill="#f2a541"/>
  <rect x="690" y="292" width="76" height="42" rx="10" fill="#084c61"/>
  <rect x="204" y="448" width="126" height="18" rx="9" fill="#084c61"/>
  <rect x="356" y="448" width="250" height="18" rx="9" fill="#0e6f7b"/>
  <rect x="632" y="448" width="124" height="18" rx="9" fill="#f2a541"/>
  <rect x="204" y="480" width="552" height="12" rx="6" fill="#c8d3df"/>
  <path d="M548 596c34-48 114-48 148 0 36-5 68 22 68 58 0 32-26 58-58 58H530c-32 0-58-26-58-58 0-35 31-62 66-58z" fill="#084c61"/>
  <path d="M576 632h106" stroke="#ffffff" stroke-width="10" stroke-linecap="round"/>
  <path d="M616 604v58" stroke="#f2a541" stroke-width="10" stroke-linecap="round"/>
</svg>
